# xmcd
#
# Track frame offsets:
#	150
#	27232
#	49555
#	90507
#	107072
#	120750
#	137372
#	150886
#	180507
#	208040
#	223070
#	249524
#	270830
#	294426
#
# Disc length: 4372 seconds
#
# Revision: 1
# Processed by: cddbd v1.5.2PL0 Copyright (c) Steve Scherf et al.
# Submitted via: audiograbber 1.83.01
#
DISCID=ab11120e
DTITLE=ZZZ - Gala 60
DYEAR=1900
DGENRE=
TTITLE0=Galaling - Hunning Bird
TTITLE1=Monokel - Rettungsboot
TTITLE2=Galaling and Sören Birke (ducki) - Tagtraum
TTITLE3=Steffis Bande - Have I Told You Lately
TTITLE4=Steffis and Gala - I Got You Babe
TTITLE5=Agneta Ivers and Stumpen, Georgie, Joro Gogow - Whats Wrong
TTITLE6=Stumpen, Buzz Dee - Der ultimative Mann
TTITLE7=Monokel and Ruth Hohmann - Tut mir leid
TTITLE8=Galaling and Frank Diez - Rambling On My Mind
TTITLE9=NO 55 and Matthias Matze" Stolpe - Don't Leave Me
TTITLE10=NO 55 - Schlüsselkind
TTITLE11=NO 55 - Laß sie warten
TTITLE12=NO 55 - In der letzten Stunde des Tages
TTITLE13=NO 55 - Come together
EXTD=
EXTT0=
EXTT1=
EXTT2=
EXTT3=
EXTT4=
EXTT5=
EXTT6=
EXTT7=
EXTT8=
EXTT9=
EXTT10=
EXTT11=
EXTT12=
EXTT13=
PLAYORDER=
